<?xml version="1.0" encoding="iso-8859-1"?>
<!-- Generator: Adobe Illustrator 19.0.0, SVG Export Plug-In . SVG Version: 6.00 Build 0)  -->
<svg version="1.1" id="Capa_1" xmlns="http://www.w3.org/2000/svg" xmlns:xlink="http://www.w3.org/1999/xlink" x="0px" y="0px"
	 viewBox="0 0 512.001 512.001" style="enable-background:new 0 0 512.001 512.001;" xml:space="preserve">
<path style="fill:#2F2E3C;" d="M414.683,304.86c0,55.667-21.885,106.067-57.574,143.3C319.423,487.482,266.298,512,207.543,512
	C93.121,512,0.403,419.282,0.403,304.86c0-15.437,1.726-30.512,4.904-45.042C25.921,167.101,108.56,97.721,207.543,97.721
	c36.598,0,70.924,9.444,100.709,26.154c0.091,0,0.181,0,0.272,0.091l77.007,74.919C404.058,229.851,414.683,266.085,414.683,304.86z
	"/>
<g>
	<path style="fill:#20202B;" d="M357.109,448.161c-37.686,39.322-90.811,63.84-149.566,63.84
		c-114.422,0-207.14-92.718-207.14-207.14c0-15.437,1.726-30.512,4.904-45.042C39.452,375.966,146.79,460.693,274.017,460.693
		C302.895,460.693,330.865,456.333,357.109,448.161z"/>
	<path style="fill:#20202B;" d="M409.665,174.751l-24.134,24.134l-0.025-0.025c-7.787,7.787-31.136-2.939-52.153-23.957
		c-21.017-21.017-31.743-44.368-23.957-52.153l-1.144,1.125l25.223-25.223"/>
</g>
<ellipse transform="matrix(0.7071 -0.7071 0.7071 0.7071 12.1727 302.7671)" style="fill:#2F2E3C;" cx="371.559" cy="136.69" rx="19.937" ry="53.814"/>
<path style="fill:#8FA3A9;" d="M435.703,83.469l-58.682,58.682c-1.503,1.503-3.479,2.264-5.454,2.264
	c-1.976,0-3.952-0.762-5.465-2.264c-3.005-3.015-3.005-7.904,0-10.919l27.746-27.746c0.01-0.01,0.031-0.031,0.041-0.041
	l30.895-30.885c3.015-3.015,7.904-3.015,10.919,0C438.719,75.575,438.719,80.454,435.703,83.469z"/>
<path style="fill:#EC1422;" d="M435.703,83.469l-30.895,30.895c-1.503,1.503-3.479,2.264-5.454,2.264
	c-1.976,0-3.952-0.762-5.465-2.264c-2.995-3.005-3.005-7.863-0.041-10.878c0.01-0.01,0.031-0.031,0.041-0.041l30.895-30.885
	c3.015-3.015,7.904-3.015,10.919,0C438.719,75.575,438.719,80.454,435.703,83.469z"/>
<path style="fill:#525464;" d="M169.917,136.286c-46.091,7.202,86.471,107.891,162.29,145.894
	c10.578,5.302,23.156-1.769,24.356-13.541c1.322-12.969,0.228-31.238-8.808-53.65C331.826,175.485,241.052,124.934,169.917,136.286z
	"/>
<g>
	<path style="fill:#F49F00;" d="M432.404,52.003c-4.264,0-7.719-3.455-7.719-7.719V7.719c0-4.264,3.455-7.719,7.719-7.719
		s7.719,3.455,7.719,7.719v36.566C440.122,48.548,436.666,52.003,432.404,52.003z"/>
	<path style="fill:#F49F00;" d="M432.404,160.595c-4.264,0-7.719-3.455-7.719-7.719V116.31c0-4.264,3.455-7.719,7.719-7.719
		s7.719,3.455,7.719,7.719v36.567C440.122,157.14,436.666,160.595,432.404,160.595z"/>
	<path style="fill:#F49F00;" d="M409.259,60.43c-2.203,0-4.39-0.938-5.917-2.757L379.838,29.66
		c-2.741-3.267-2.315-8.134,0.951-10.874c3.267-2.743,8.134-2.314,10.874,0.951l23.505,28.012c2.741,3.267,2.315,8.134-0.951,10.874
		C412.77,59.838,411.01,60.43,409.259,60.43z"/>
	<path style="fill:#F49F00;" d="M479.06,143.614c-2.203,0-4.39-0.938-5.917-2.757l-23.505-28.011
		c-2.741-3.267-2.315-8.134,0.951-10.874c3.265-2.739,8.134-2.314,10.874,0.951l23.505,28.011c2.741,3.267,2.315,8.134-0.951,10.874
		C482.571,143.022,480.81,143.614,479.06,143.614z"/>
	<path style="fill:#F49F00;" d="M396.947,81.764c-0.446,0-0.895-0.038-1.35-0.118l-36.011-6.35c-4.198-0.74-7.001-4.743-6.26-8.941
		c0.741-4.197,4.738-7.004,8.941-6.26l36.011,6.35c4.198,0.74,7.001,4.743,6.26,8.941C403.879,79.129,400.622,81.764,396.947,81.764
		z"/>
	<path style="fill:#F49F00;" d="M503.888,100.621c-0.446,0-0.895-0.038-1.35-0.118l-36.01-6.35c-4.198-0.74-7.001-4.743-6.26-8.941
		c0.741-4.198,4.74-7.006,8.941-6.26l36.01,6.35c4.198,0.74,7.001,4.743,6.26,8.941C510.819,97.986,507.563,100.621,503.888,100.621
		z"/>
	<path style="fill:#F49F00;" d="M463.597,70.011c-2.668,0-5.261-1.384-6.692-3.86c-2.131-3.692-0.867-8.412,2.825-10.544
		l31.668-18.284c3.691-2.129,8.411-0.868,10.544,2.825c2.131,3.692,0.867,8.412-2.825,10.544L467.45,68.976
		C466.235,69.677,464.907,70.011,463.597,70.011z"/>
</g>
<g>
</g>
<g>
</g>
<g>
</g>
<g>
</g>
<g>
</g>
<g>
</g>
<g>
</g>
<g>
</g>
<g>
</g>
<g>
</g>
<g>
</g>
<g>
</g>
<g>
</g>
<g>
</g>
<g>
</g>
</svg>
