<?xml version="1.0" encoding="utf-8"?>
<!-- Generator: Adobe Illustrator 16.0.0, SVG Export Plug-In . SVG Version: 6.00 Build 0)  -->
<!DOCTYPE svg PUBLIC "-//W3C//DTD SVG 1.1//EN" "http://www.w3.org/Graphics/SVG/1.1/DTD/svg11.dtd">
<svg version="1.1" id="CheeseSauce" xmlns="http://www.w3.org/2000/svg" xmlns:xlink="http://www.w3.org/1999/xlink" x="0px"
	 y="0px" width="450px" height="100px" viewBox="0 0 450 100" enable-background="new 0 0 450 100" xml:space="preserve">
<g>
	<path fill="none" d="M231.389,50c7.382,0,14.674-0.042,21.863-0.122C245.98,49.958,238.602,50,231.131,50
		C231.217,50,231.303,50,231.389,50z"/>
	<path fill="#FFCD2C" d="M450.498,25.479c0,0.005,0.001,0.011,0.001,0.016c0.001-0.012,0.001-0.036,0.001-0.036
		C450.5,25.466,450.498,25.473,450.498,25.479z"/>
	<path fill="#FFCD2C" d="M444.515,31.012c-20.346,10.027-95.187,17.658-188.329,18.83c-0.848,0.011-1.692,0.022-2.543,0.032
		c-0.13,0.001-0.261,0.002-0.391,0.004C246.063,49.958,238.771,50,231.389,50c-0.086,0-0.172,0-0.258,0c-0.117,0-0.232,0-0.35,0
		c-1.776,0-3.381,1-5.191,1c-0.002,0-0.005,0-0.007,0c-0.001,0-0.003,0-0.003,0c-0.005,0-0.008,0-0.013,0
		C101.349,51,0.635,39.558,0.635,25.75c0-0.027-0.026-0.18-0.022-0.207c0.001-0.009-0.008-0.081-0.016-0.09
		c0.167,3.247,2.51,26.884,35.569,49.413C71.75,99.116,377.5,99.434,414,74.934c35.754-23.999,36.484-48.676,36.499-49.666
		C450.494,27.243,448.415,29.166,444.515,31.012z"/>
	<path fill="#FFCD2C" d="M0.583,25c0,0,0.001,0.071,0.004,0.177c0.007-0.06,0.021-0.118,0.031-0.177H0.583z"/>
	<path fill="#FFDE8D" d="M225.567,51c0.005,0,0.008,0,0.013,0c0,0,0.002,0,0.003,0c0.002,0,0.005,0,0.007,0c1.811,0,3.415-1,5.191-1
		c0.117,0,0.232,0,0.35,0c7.471,0,14.85-0.042,22.121-0.122c0.13-0.002,0.261-0.003,0.391-0.004c0.851-0.01,1.695-0.021,2.543-0.032
		c93.143-1.172,167.983-8.803,188.329-18.83C448.103,29.243,450,27.4,450,25.506c0-0.002,0-0.004,0-0.006s0-0.003,0-0.005
		c0-0.005,0-0.011,0-0.016C450,11.682,349.49,0.5,225.334,0.5C102.621,0.5,3.017,11.424,0.619,25
		c-0.01,0.059-0.024,0.117-0.031,0.177c-0.006,0.051-0.023,0.102-0.026,0.153c-0.001,0.021,0.021,0.04,0.036,0.061
		c0.007,0.009,0.017,0.144,0.016,0.152c-0.004,0.027,0.022,0.18,0.022,0.207C0.635,39.558,101.349,51,225.567,51z"/>
</g>
</svg>
