<?xml version="1.0" encoding="utf-8"?>
<!-- Generator: Adobe Illustrator 16.0.0, SVG Export Plug-In . SVG Version: 6.00 Build 0)  -->
<!DOCTYPE svg PUBLIC "-//W3C//DTD SVG 1.1//EN" "http://www.w3.org/Graphics/SVG/1.1/DTD/svg11.dtd">
<svg version="1.1" id="BurgerTop" xmlns="http://www.w3.org/2000/svg" xmlns:xlink="http://www.w3.org/1999/xlink" x="0px" y="0px"
	 width="450px" height="100px" viewBox="0 0 450 100" enable-background="new 0 0 450 100" xml:space="preserve">
<g>
	<path fill="#FFCD2C" d="M0,76c38.125,38.125,424.167,25.833,450,0c0,0-2.334-75-225.5-75C1.333,1,0,76,0,76z"/>
	<path fill="#FFF8F8" d="M84.5,38.5c-0.563,0-2.339,6.662-0.833,8.167s3.975,0.452,4.177-0.761C88.188,43.844,85.063,38.5,84.5,38.5
		z"/>
	<path fill="#FFF8F8" d="M129.5,45.5c-0.563,0-2.339,6.662-0.833,8.167s3.975,0.452,4.177-0.761
		C133.188,50.844,130.063,45.5,129.5,45.5z"/>
	<path fill="#FFF8F8" d="M213.5,62.5c-0.563,0-2.339,6.662-0.834,8.167c1.506,1.505,3.976,0.452,4.178-0.761
		C217.188,67.844,214.063,62.5,213.5,62.5z"/>
	<path fill="#FFF8F8" d="M226.5,34.5c-0.563,0-2.339,6.662-0.834,8.167c1.506,1.505,3.976,0.452,4.178-0.761
		C230.188,39.844,227.063,34.5,226.5,34.5z"/>
	<path fill="#FFF8F8" d="M158.5,23.5c-0.563,0-2.339,6.662-0.833,8.167s3.975,0.452,4.177-0.761
		C162.188,28.844,159.063,23.5,158.5,23.5z"/>
	<path fill="#FFF8F8" d="M203.5,30.5c-0.563,0-2.339,6.662-0.833,8.167s3.975,0.452,4.177-0.761
		C207.188,35.844,204.063,30.5,203.5,30.5z"/>
	<path fill="#FFF8F8" d="M287.5,47.5c-0.563,0-2.339,6.662-0.834,8.167c1.506,1.505,3.976,0.452,4.178-0.761
		C291.188,52.844,288.063,47.5,287.5,47.5z"/>
	<path fill="#FFF8F8" d="M300.5,19.5c-0.563,0-2.339,6.662-0.834,8.167c1.506,1.505,3.976,0.452,4.178-0.761
		C304.188,24.844,301.063,19.5,300.5,19.5z"/>
	<path fill="#FFF8F8" d="M248.5,32.5c-0.563,0-2.339,6.662-0.834,8.167c1.506,1.505,3.976,0.452,4.178-0.761
		C252.188,37.844,249.063,32.5,248.5,32.5z"/>
	<path fill="#FFF8F8" d="M325.5,58.5c-0.563,0-2.339,6.662-0.834,8.167c1.506,1.505,3.976,0.452,4.178-0.761
		C329.188,63.844,326.063,58.5,325.5,58.5z"/>
	<path fill="#FFF8F8" d="M377.5,56.5c-0.563,0-2.339,6.662-0.834,8.167c1.506,1.505,3.976,0.452,4.178-0.761
		C381.188,61.844,378.063,56.5,377.5,56.5z"/>
	<path fill="#FFF8F8" d="M390.5,28.5c-0.563,0-2.339,6.662-0.834,8.167c1.506,1.505,3.976,0.452,4.178-0.761
		C394.188,33.844,391.063,28.5,390.5,28.5z"/>
	<path fill="#FFF8F8" d="M270.166,14.722c-0.465-0.315-5.673,4.203-5.271,6.293c0.402,2.091,3.038,2.604,3.886,1.714
		C270.222,21.214,270.632,15.037,270.166,14.722z"/>
	<path fill="#FFF8F8" d="M241.166,9.722c-0.465-0.315-5.673,4.203-5.271,6.293c0.402,2.091,3.038,2.604,3.886,1.714
		C241.222,16.214,241.632,10.037,241.166,9.722z"/>
	<path fill="#FFF8F8" d="M252.166,49.722c-0.465-0.315-5.673,4.203-5.271,6.293c0.402,2.091,3.038,2.604,3.886,1.714
		C252.222,56.214,252.632,50.037,252.166,49.722z"/>
	<path fill="#FFF8F8" d="M192.166,45.722c-0.465-0.315-5.673,4.203-5.271,6.293c0.402,2.091,3.038,2.604,3.886,1.714
		C192.222,52.214,192.632,46.037,192.166,45.722z"/>
	<path fill="#FFF8F8" d="M163.166,40.722c-0.465-0.315-5.673,4.203-5.271,6.293c0.402,2.091,3.038,2.604,3.886,1.714
		C163.222,47.214,163.632,41.037,163.166,40.722z"/>
	<path fill="#FFF8F8" d="M148.166,66.722c-0.465-0.315-5.673,4.203-5.271,6.293c0.402,2.091,3.038,2.604,3.886,1.714
		C148.222,73.214,148.632,67.037,148.166,66.722z"/>
	<path fill="#FFF8F8" d="M128.166,27.722c-0.465-0.315-5.673,4.203-5.271,6.293c0.402,2.091,3.038,2.604,3.886,1.714
		C128.222,34.214,128.632,28.037,128.166,27.722z"/>
	<path fill="#FFF8F8" d="M99.166,22.722c-0.465-0.315-5.673,4.203-5.271,6.293c0.402,2.091,3.038,2.604,3.886,1.714
		C99.222,29.214,99.632,23.037,99.166,22.722z"/>
	<path fill="#FFF8F8" d="M110.166,62.722c-0.465-0.315-5.673,4.203-5.271,6.293c0.402,2.091,3.038,2.604,3.886,1.714
		C110.222,69.214,110.632,63.037,110.166,62.722z"/>
	<path fill="#FFF8F8" d="M365.166,34.722c-0.465-0.315-5.673,4.203-5.271,6.293c0.402,2.091,3.038,2.604,3.886,1.714
		C365.222,41.214,365.632,35.037,365.166,34.722z"/>
	<path fill="#FFF8F8" d="M336.166,29.722c-0.465-0.315-5.673,4.203-5.271,6.293c0.402,2.091,3.038,2.604,3.886,1.714
		C336.222,36.214,336.632,30.037,336.166,29.722z"/>
	<path fill="#FFF8F8" d="M347.166,69.722c-0.465-0.315-5.673,4.203-5.271,6.293c0.402,2.091,3.038,2.604,3.886,1.714
		C347.222,76.214,347.632,70.037,347.166,69.722z"/>
	<path fill="#FFF8F8" d="M74.166,59.722c-0.465-0.315-5.673,4.203-5.271,6.293c0.402,2.091,3.038,2.604,3.886,1.714
		C74.222,66.214,74.632,60.037,74.166,59.722z"/>
	<path fill="#FFF8F8" d="M273.166,68.722c-0.465-0.315-5.673,4.203-5.271,6.293c0.402,2.091,3.038,2.604,3.886,1.714
		C273.222,75.214,273.632,69.037,273.166,68.722z"/>
</g>
</svg>
