<?xml version="1.0" encoding="utf-8"?>
<!-- Generator: Adobe Illustrator 16.0.0, SVG Export Plug-In . SVG Version: 6.00 Build 0)  -->
<!DOCTYPE svg PUBLIC "-//W3C//DTD SVG 1.1//EN" "http://www.w3.org/Graphics/SVG/1.1/DTD/svg11.dtd">
<svg version="1.1" id="CheeseSauce" xmlns="http://www.w3.org/2000/svg" xmlns:xlink="http://www.w3.org/1999/xlink" x="0px"
	 y="0px" width="450px" height="100px" viewBox="0 0 450 100" enable-background="new 0 0 450 100" xml:space="preserve">
<path fill="#FFCE00" d="M413.667,23.79C388.833-14.114,34.791-1.285,17.417,24.532C0.043,50.349,0,97.838,0,97.838
	c24.004-35.67,425.588-35.533,449.5,0C449.501,97.838,438.499,61.691,413.667,23.79z M114,35.171
	c-14.268,0-25.833-3.06-25.833-6.833S99.733,21.505,114,21.505s25.833,3.06,25.833,6.833S128.268,35.171,114,35.171z
	 M240.835,29.315c-18.596,0-33.668-3.987-33.668-8.904c0-4.918,15.072-8.905,33.668-8.905c18.594,0,33.666,3.987,33.666,8.905
	C274.501,25.328,259.429,29.315,240.835,29.315z M336.562,48.649c-8.502,0-15.395-1.823-15.395-4.071
	c0-2.249,6.893-4.072,15.395-4.072s15.395,1.823,15.395,4.072C351.956,46.826,345.063,48.649,336.562,48.649z"/>
</svg>
