<?xml version="1.0" encoding="utf-8"?>
<!-- Generator: Adobe Illustrator 16.0.0, SVG Export Plug-In . SVG Version: 6.00 Build 0)  -->
<!DOCTYPE svg PUBLIC "-//W3C//DTD SVG 1.1//EN" "http://www.w3.org/Graphics/SVG/1.1/DTD/svg11.dtd">
<svg version="1.1" id="CheeseSauce" xmlns="http://www.w3.org/2000/svg" xmlns:xlink="http://www.w3.org/1999/xlink" x="0px"
	 y="0px" width="450px" height="100px" viewBox="0 0 450 100" enable-background="new 0 0 450 100" xml:space="preserve">
<g>
	<path fill="#00C600" d="M225.334-0.334c-7.332,0.015-14.319,0.387-20.692,4.073C200.325,6.236,196.92,6,191.767,6
		c-5.878,0-12.346-0.689-18.102,0.326c-5.167,0.913-9.683,2.666-14.96,2.674c-5.292,0.008-11.27-2.54-16.42-0.934
		c-1.95,0.608-3.095,1.859-4.948,2.266c-4.94,1.085-10.511-0.848-15.398-1.273c-8.103-0.707-16.805-0.241-23.679,4.333
		c-6.104,4.062-8.428,6.165-16.411,4.616c-13.371-2.594-26.808,1.604-39.981,3.709c-6.594,1.055-10.828,5.365-16.02,8.293
		c-4.796,2.705-9.959,3.029-14.33,6.251c-1.503,1.107-3.458,1.907-4.868,3.154c-1.732,1.533-1.364,1.979-1.985,3.917
		C3.639,46.537,2.483,50.203,2,53.668c-0.445,3.191-0.292,3.219,2.848,4.081c2.462,0.677,4.886,0.575,7.355,1.195
		c2.919,0.732,7.74,3.37,8.822,6.463c0.609,1.739-0.026,4.817-0.025,6.686c0.001,1.808-1.021,6.146-0.354,7.605
		c0.833,1.822,6.6,3.296,8.385,4.327c2.377,1.371,4.562,2.889,6.708,4.633c3.947,3.206,5.964,6.506,11.193,7.608
		c2.358,0.497,4.903,1.122,7.315,1.499c4.499,0.705,3.853,0.087,5.152-3.6c3.346-9.487,7.137-9.162,15.6-12.332
		C78.732,80.436,87.26,84.07,90.667,82c3.233-1.966,10.917,5.074,14.25,3.333c3.847-2.009,6.963-21,11.164-21
		c1.194,0,3.778-0.52,4.92-0.034c2.681,1.138,5.113,6.902,6.614,9.385c2.331,3.854,3.388,7.18,4.368,11.226
		c1.012,4.183,3.808,6.094,8.048,7.363c4.622,1.384,9.378,0.222,14.034,1.71c4.305,1.377,15.728,6.756,19.285,2.474
		c2.072-2.493,1.063-6.247,4.101-8.714c3.755-3.049,10.302-5.156,14.896-6.432c6.909-1.918,12.805,1.118,19.251,3.521
		c4.44,1.655,10.474,5.824,15.349,5.485c0.616-3.599-4.148-6.196-5.695-8.582c9.058-2.016,20.946-0.978,29.921,0.94
		c3.767,0.805,6.877,1.636,10.225,3.343c5.506,2.808,10.718,6.059,16.989,7.313c3.527,0.705,7.019,1.434,10.623,1.334
		c4.525-0.125,4.975-2.316,9.005-3.663c8.843-2.955,17.99,5.112,26,8.013c6.39,2.314,9.631-2.663,14.528-5.033
		c3.845-1.86,8.707-1.838,12.8-2.977c4.192-1.167,7.978-3.536,11.983-4.756c10.432-3.177,24.158-0.937,34.926-0.918
		c4.957,0.009,10.617-1.732,15.199-0.396c6.132,1.789,12.044,6.951,17.642,10.063c3.825,2.127,8.244,4.381,8.924-1.609
		c0.808-7.128-5.932-14.225-6.949-21.267c-1.03-7.134,4.447-6.361,9.123-9.105c3.652-2.144,5.424-3.626,6.81-7.352
		c1.725-4.634-0.233-6.994-1.983-11.957c-2.406-6.823-4.402-11.288-10.783-15.06c-2.312-1.365-5.063-1.784-7.533-2.975
		c-2.612-1.26-2.206-2.835-4.079-4.665c-2.719-2.656-13.026-2.8-16.141-1.325c-3.221,1.525-1.319,4.256-3.467,7.013
		c-2.62,3.366-13.115,2.224-16.437,0.616c-3.237-1.566-5.849-4.483-8.652-6.648c-6.679-5.154-15.695-5.377-23.79-6.916
		c-5.745-1.092-9.322-4.614-15.262-5.749c-10.538-2.013-22.746-1.106-33.09,1.241c-4.327,0.982-16.229,6.219-19.857,3.188
		c-0.823-0.688-0.484-2.033-0.896-2.445c-1.035-1.036-3.04-1.302-4.635-1.652c-5.24-1.151-10.884-2.187-16.226-2.682
		c-4.588-0.426-7.436-1.078-11.756-2.659c-9.442-3.458-18.82-3.325-28.748-3.325"/>
	<path fill="#89FF80" d="M48.583,49.667c0,0,95.087-4.667,175.084-4.167C303.666,46,413,54.667,413,54.667s-41.99-15.334-190.081-17
		C74.827,36.001,48.583,49.667,48.583,49.667z"/>
	<path fill="#89FF80" d="M347,45.026c0,0,7.413,7.539,10.388,15.314c2.973,7.775,1.151,20.987,1.151,20.987s9.551-8.96,4.591-23.593
		C358.172,43.102,347,45.026,347,45.026z"/>
	<path fill="#89FF80" d="M315,46.026c0,0,8.049,8.986,11.558,17.98c3.508,8.993,2.417,23.87,2.417,23.87s9.271-9.6,3.32-26.487
		C326.348,44.501,315,46.026,315,46.026z"/>
	<path fill="#89FF80" d="M283,42.026c0,0,8.049,8.986,11.558,17.98c3.508,8.993,2.417,23.87,2.417,23.87s9.271-9.6,3.32-26.487
		C294.348,40.501,283,42.026,283,42.026z"/>
	<path fill="#89FF80" d="M258,41.026c0,0,8.237,9.415,11.904,18.77c3.666,9.354,2.792,24.725,2.792,24.725s9.188-9.789,2.943-27.345
		C269.399,39.619,258,41.026,258,41.026z"/>
	<path fill="#89FF80" d="M229.473,41.7c0,0,7.596,6.687,10.385,13.943c2.789,7.256,0.107,20.106,0.107,20.106
		s10.795-9.351,6.23-23.053C241.637,38.996,229.473,41.7,229.473,41.7z"/>
	<path fill="#89FF80" d="M205.174,42.535c0,0,7.148,6.934,9.899,14.201c2.75,7.268,0.623,19.784,0.623,19.784
		s9.669-8.693,5.121-22.385C216.273,40.443,205.174,42.535,205.174,42.535z"/>
	<path fill="#89FF80" d="M181.174,42.535c0,0,7.148,6.934,9.899,14.201c2.75,7.268,0.623,19.784,0.623,19.784
		s9.669-8.693,5.121-22.385C192.273,40.443,181.174,42.535,181.174,42.535z"/>
	<path fill="#89FF80" d="M157.174,42.535c0,0,7.148,6.934,9.899,14.201c2.75,7.268,0.623,19.784,0.623,19.784
		s9.669-8.693,5.121-22.385C168.273,40.443,157.174,42.535,157.174,42.535z"/>
	<path fill="#89FF80" d="M130.174,42.535c0,0,7.148,6.934,9.899,14.201c2.75,7.268,0.623,19.784,0.623,19.784
		s9.669-8.693,5.121-22.385C141.273,40.443,130.174,42.535,130.174,42.535z"/>
	<path fill="#89FF80" d="M85.174,44.535c0,0,7.148,6.934,9.899,14.201c2.75,7.268,0.623,19.784,0.623,19.784
		s9.669-8.693,5.121-22.385C96.273,42.443,85.174,44.535,85.174,44.535z"/>
	<path fill="#89FF80" d="M345.134,20.257c0,0-6.909,5.715-8.631,11.985c-1.72,6.27,3.309,17.48,3.309,17.48
		s-13.03-8.273-10.527-20.126C331.784,17.742,345.134,20.257,345.134,20.257z"/>
	<path fill="#89FF80" d="M314.134,17.257c0,0-6.909,5.715-8.631,11.985c-1.72,6.27,3.309,17.48,3.309,17.48
		s-13.03-8.273-10.527-20.126C300.784,14.742,314.134,17.257,314.134,17.257z"/>
	<path fill="#89FF80" d="M286.134,16.257c0,0-6.909,5.715-8.631,11.985c-1.72,6.27,3.309,17.48,3.309,17.48
		s-13.03-8.273-10.527-20.126C272.784,13.742,286.134,16.257,286.134,16.257z"/>
	<path fill="#89FF80" d="M258.134,15.257c0,0-6.909,5.715-8.631,11.985c-1.72,6.27,3.309,17.48,3.309,17.48
		s-13.03-8.273-10.527-20.126C244.784,12.742,258.134,15.257,258.134,15.257z"/>
	<path fill="#89FF80" d="M231.134,15.257c0,0-6.909,5.715-8.631,11.985c-1.72,6.27,3.309,17.48,3.309,17.48
		s-13.03-8.273-10.527-20.126C217.784,12.742,231.134,15.257,231.134,15.257z"/>
	<path fill="#89FF80" d="M206.134,14.257c0,0-6.909,5.715-8.631,11.985c-1.72,6.27,3.309,17.48,3.309,17.48
		s-13.03-8.273-10.527-20.126C192.784,11.742,206.134,14.257,206.134,14.257z"/>
	<path fill="#89FF80" d="M182.134,15.257c0,0-6.909,5.715-8.631,11.985c-1.72,6.27,3.309,17.48,3.309,17.48
		s-13.03-8.273-10.527-20.126C168.784,12.742,182.134,15.257,182.134,15.257z"/>
	<path fill="#89FF80" d="M157.134,16.257c0,0-6.909,5.715-8.631,11.985c-1.72,6.27,3.309,17.48,3.309,17.48
		s-13.03-8.273-10.527-20.126C143.784,13.742,157.134,16.257,157.134,16.257z"/>
	<path fill="#89FF80" d="M124.134,17.257c0,0-6.909,5.715-8.631,11.985c-1.72,6.27,3.309,17.48,3.309,17.48
		s-13.03-8.273-10.527-20.126C110.784,14.742,124.134,17.257,124.134,17.257z"/>
</g>
</svg>
