<?xml version="1.0" encoding="utf-8"?>
<!-- Generator: Adobe Illustrator 16.0.0, SVG Export Plug-In . SVG Version: 6.00 Build 0)  -->
<!DOCTYPE svg PUBLIC "-//W3C//DTD SVG 1.1//EN" "http://www.w3.org/Graphics/SVG/1.1/DTD/svg11.dtd">
<svg version="1.1" id="CheeseSauce" xmlns="http://www.w3.org/2000/svg" xmlns:xlink="http://www.w3.org/1999/xlink" x="0px"
	 y="0px" width="450px" height="100px" viewBox="0 0 450 100" enable-background="new 0 0 450 100" xml:space="preserve">
<g>
	<g>
		<g>
			<g>
				<path fill="#913E00" d="M224.75,50.5c124.218,0,224.833-11.192,224.833-25s-100.74-25-224.958-25
					C100.918,0.5,0.697,11.601-0.126,25.33C-0.13,25.386,0,25.44,0,25.496c0,0.001,0,0.003,0,0.004
					C0,39.308,100.532,50.5,224.75,50.5z"/>
			</g>
		</g>
		<path fill="#722E00" d="M224.75,50.5C100.532,50.5,0,39.308,0,25.5C0,25.499,0,25,0,25h-0.417c0,0,1.417,26.248,18.75,50.752
			s400.5,25.124,415.833,0.124s15.416-50.438,15.416-50.438C449.583,39.246,348.968,50.5,224.75,50.5z"/>
	</g>
	<polygon fill="#561A00" points="101.125,4.563 117.563,3.5 72.625,43.959 59.209,42.459 	"/>
	<polygon fill="#561A00" points="144.5,2.209 157.406,1.688 123.209,47.917 111.292,47.125 	"/>
	<polygon fill="#561A00" points="157.334,49.417 168.084,49.917 188.854,0.854 177.854,1.021 	"/>
	<polygon fill="#561A00" points="220.5,0.5 230.459,0.584 230.281,50.469 220.219,50.531 	"/>
	<polygon fill="#561A00" points="249.813,0.75 260.188,0.938 274.313,50 263.938,50.25 	"/>
	<polygon fill="#561A00" points="288.75,1.563 301.25,2.125 331.75,47.563 320.25,48.125 	"/>
	<polygon fill="#561A00" points="392.375,42.375 379.125,43.75 334.25,3.813 350.5,4.813 	"/>
</g>
</svg>
