<?xml version="1.0" encoding="utf-8"?>
<!-- Generator: Adobe Illustrator 16.0.0, SVG Export Plug-In . SVG Version: 6.00 Build 0)  -->
<!DOCTYPE svg PUBLIC "-//W3C//DTD SVG 1.1//EN" "http://www.w3.org/Graphics/SVG/1.1/DTD/svg11.dtd">
<svg version="1.1" id="CheeseSauce" xmlns="http://www.w3.org/2000/svg" xmlns:xlink="http://www.w3.org/1999/xlink" x="0px"
	 y="0px" width="450px" height="100px" viewBox="0 0 450 100" enable-background="new 0 0 450 100" xml:space="preserve">
<g>
	<path fill="#D60000" d="M449.521,48.503c-0.146-5.279-1.879-20.048-15.709-33.878C416.594-2.594,38.334-6.001,17.333,15
		C7.5,24.834,2.929,33.314,0.848,39.554C-0.328,41.015-1,42.679-1,44.447v43.105C-1,93.323,6.089,98,14.833,98h0.333
		C23.911,98,31,93.323,31,87.553V44.447c0-0.294-0.03-0.583-0.066-0.87C32.836,39.138,37.457,36,42.865,36h0.27
		C50.24,36,56,41.408,56,48.08V51h0.114C56.04,52,56,53.233,56,54.489v1.187C56,69.754,55.563,81,66.75,81
		c0,0,5.938-0.5,7.625-2.438C77.313,77.813,76,59.875,76,59.875C76,55.525,79.526,52,83.875,52h0.25C88.474,52,92,55.525,92,59.875
		c0,0,0.667,15.124,2.083,18.458S99.25,81,99.25,81C110.688,81,110,69.754,110,55.676v-1.187c0-1.27-0.041-2.489-0.116-3.489H110
		v-3.92c0-6.672,5.76-12.08,12.865-12.08h0.27C130.24,35,136,40.408,136,47.08v3.652V74.92c0,6.672,7.089,12.08,15.833,12.08h0.333
		C160.911,87,168,81.592,168,74.92V50.709V49.08c0-6.672,5.76-12.08,12.865-12.08h0.27C188.24,37,194,42.408,194,49.08V50v0.689V73
		c0,4.971,4.029,9,9,9s9-4.029,9-9V50.676V50v-4.92c0-6.672,4.82-12.08,10.148-12.08h0.203C227.68,33,232,38.408,232,45.08v4.42V51
		v36.5c0,2.81,1.227,5.326,3.165,7.065c2.746,3.247,7.832,5.435,13.669,5.435h0.332C257.911,100,265,95.104,265,89.063V50.637V45.08
		c0-3.882,0.982-7.326,2.431-9.536l7.683,0.631C276.27,38.384,277,41.55,277,45.08V47v3.628V72c0,2.762,2.238,5,5,5s5-2.238,5-5
		V50.62V47v-3.92c0-2.116,0.427-4.104,1.155-5.834l15.288,1.256c0.359,1.413,0.557,2.957,0.557,4.578V51h0.066
		c-0.039,0.272-0.066,0.55-0.066,0.833v30.334c0,3.157,2.51,5.722,5.642,5.823c2.865,1.859,6.822,3.01,11.192,3.01h0.332
		C329.911,91,337,86.396,337,80.716V50.583V46.08c0-1.698,0.189-3.313,0.521-4.778l11.171,0.917c0.196,1.214,0.308,2.51,0.308,3.861
		V51h0.111c-0.066,0-0.111,0.459-0.111,0.917v22.166c0,4.925,3.992,8.917,8.916,8.917h0.168c4.924,0,8.916-3.992,8.916-8.917V51.917
		c0-0.462-0.046-0.917-0.113-0.917H367v-6.92c0-0.12,0.012-0.236,0.014-0.355L384,45.119v5.43v14.167
		C384,70.396,391.089,75,399.834,75h0.332C408.911,75,416,70.396,416,64.716V51h0.086c0.095-1,0.283-2.096,0.535-2.963l16.142,1.421
		c0.07,0.454,0.131,0.542,0.168,1.542h0.104c-0.019,0-0.034,0.021-0.034,0.25v20.5c0,4.557,3.693,8.25,8.25,8.25h0.5
		c4.557,0,8.25-3.693,8.25-8.25v-20.5C450,50.285,449.826,49.363,449.521,48.503z"/>
	<path fill="#D60000" d="M106.833,84.333"/>
</g>
</svg>
