<?xml version="1.0" encoding="iso-8859-1"?>
<!-- Generator: Adobe Illustrator 19.0.0, SVG Export Plug-In . SVG Version: 6.00 Build 0)  -->
<svg version="1.1" id="Capa_1" xmlns="http://www.w3.org/2000/svg" xmlns:xlink="http://www.w3.org/1999/xlink" x="0px" y="0px"
	 viewBox="0 0 468.293 468.293" style="enable-background:new 0 0 468.293 468.293;" xml:space="preserve">
<path style="fill:#64798A;" d="M437.073,18.732v430.829c0,10.345-8.386,18.732-18.732,18.732H49.951
	c-10.345,0-18.732-8.386-18.732-18.732V18.732C31.22,8.386,39.606,0,49.951,0h368.39C428.687,0,437.073,8.386,437.073,18.732z"/>
<rect x="31.22" y="159.013" style="fill:#3A556A;" width="405.854" height="24.976"/>
<path style="fill:#3EA69B;" d="M71.796,26.679c-3.448,0-6.244,2.796-6.244,6.244v53.405l227.905-59.649H71.796z"/>
<path style="fill:#44C4A1;" d="M396.479,26.679H293.457L65.552,86.329v41.491c0,3.449,2.796,6.244,6.244,6.244h324.683
	c3.45,0,6.244-2.795,6.244-6.244V32.923C402.723,29.475,399.928,26.679,396.479,26.679z"/>
<rect x="62.439" y="210.794" style="fill:#E1E6E9;" width="61.883" height="55.639"/>
<polygon style="fill:#D5D6DB;" points="124.324,266.422 62.439,266.422 124.324,210.78 "/>
<rect x="156.285" y="210.794" style="fill:#E1E6E9;" width="61.883" height="55.639"/>
<polygon style="fill:#D5D6DB;" points="218.167,266.422 156.282,266.422 218.167,210.78 "/>
<rect x="250.124" y="210.794" style="fill:#E1E6E9;" width="61.883" height="55.639"/>
<polygon style="fill:#D5D6DB;" points="312.011,266.422 250.125,266.422 312.011,210.78 "/>
<g>
	<rect x="62.439" y="298.396" style="fill:#E1E6E9;" width="61.883" height="55.639"/>
	<rect x="156.285" y="298.396" style="fill:#E1E6E9;" width="61.883" height="55.639"/>
	<rect x="250.124" y="298.396" style="fill:#E1E6E9;" width="61.883" height="55.639"/>
</g>
<g>
	<polygon style="fill:#D5D6DB;" points="124.324,354.018 62.439,354.018 124.324,298.376 	"/>
	<polygon style="fill:#D5D6DB;" points="218.167,354.018 156.282,354.018 218.167,298.376 	"/>
	<polygon style="fill:#D5D6DB;" points="312.011,354.018 250.125,354.018 312.011,298.376 	"/>
</g>
<g>
	<rect x="62.439" y="385.998" style="fill:#E1E6E9;" width="61.883" height="55.639"/>
	<rect x="156.285" y="385.998" style="fill:#E1E6E9;" width="61.883" height="55.639"/>
	<rect x="250.124" y="385.998" style="fill:#E1E6E9;" width="61.883" height="55.639"/>
</g>
<g>
	<polygon style="fill:#D5D6DB;" points="124.324,441.613 62.439,441.613 124.324,385.972 	"/>
	<polygon style="fill:#D5D6DB;" points="218.167,441.613 156.282,441.613 218.167,385.972 	"/>
	<polygon style="fill:#D5D6DB;" points="312.011,441.613 250.125,441.613 312.011,385.972 	"/>
</g>
<rect x="343.977" y="210.794" style="fill:#FCD462;" width="61.883" height="55.639"/>
<polygon style="fill:#F6C358;" points="405.854,266.422 343.968,266.422 405.854,210.78 "/>
<rect x="343.977" y="298.396" style="fill:#E56353;" width="61.883" height="143.235"/>
<polygon style="fill:#D15241;" points="405.854,441.613 343.968,441.613 405.854,298.376 "/>
<g>
</g>
<g>
</g>
<g>
</g>
<g>
</g>
<g>
</g>
<g>
</g>
<g>
</g>
<g>
</g>
<g>
</g>
<g>
</g>
<g>
</g>
<g>
</g>
<g>
</g>
<g>
</g>
<g>
</g>
</svg>
